<svg width="25" height="24" viewBox="0 0 25 24" fill="none" xmlns="http://www.w3.org/2000/svg">
<g clip-path="url(#clip0_17_223)">
<path d="M12.5 2.16094C15.8398 2.16094 16.2354 2.175 17.5488 2.23125C18.7695 2.28281 19.4287 2.47969 19.8682 2.64375C20.4492 2.85938 20.8691 3.12188 21.3037 3.53906C21.7432 3.96094 22.0117 4.35938 22.2363 4.91719C22.4072 5.33906 22.6123 5.97656 22.666 7.14375C22.7246 8.40937 22.7393 8.78906 22.7393 11.9906C22.7393 15.1969 22.7246 15.5766 22.666 16.8375C22.6123 18.0094 22.4072 18.6422 22.2363 19.0641C22.0117 19.6219 21.7383 20.025 21.3037 20.4422C20.8643 20.8641 20.4492 21.1219 19.8682 21.3375C19.4287 21.5016 18.7646 21.6984 17.5488 21.75C16.2305 21.8062 15.835 21.8203 12.5 21.8203C9.16016 21.8203 8.76465 21.8062 7.45117 21.75C6.23047 21.6984 5.57129 21.5016 5.13184 21.3375C4.55078 21.1219 4.13086 20.8594 3.69629 20.4422C3.25684 20.0203 2.98828 19.6219 2.76367 19.0641C2.59277 18.6422 2.3877 18.0047 2.33398 16.8375C2.27539 15.5719 2.26074 15.1922 2.26074 11.9906C2.26074 8.78438 2.27539 8.40469 2.33398 7.14375C2.3877 5.97187 2.59277 5.33906 2.76367 4.91719C2.98828 4.35938 3.26172 3.95625 3.69629 3.53906C4.13574 3.11719 4.55078 2.85938 5.13184 2.64375C5.57129 2.47969 6.23535 2.28281 7.45117 2.23125C8.76465 2.175 9.16016 2.16094 12.5 2.16094ZM12.5 0C9.10645 0 8.68164 0.0140625 7.34863 0.0703125C6.02051 0.126563 5.10742 0.332812 4.31641 0.628125C3.49121 0.9375 2.79297 1.34531 2.09961 2.01562C1.40137 2.68125 0.976562 3.35156 0.654297 4.13906C0.34668 4.90313 0.131836 5.775 0.0732422 7.05C0.0146484 8.33437 0 8.74219 0 12C0 15.2578 0.0146484 15.6656 0.0732422 16.9453C0.131836 18.2203 0.34668 19.0969 0.654297 19.8563C0.976562 20.6484 1.40137 21.3188 2.09961 21.9844C2.79297 22.65 3.49121 23.0625 4.31152 23.3672C5.10742 23.6625 6.01562 23.8687 7.34375 23.925C8.67676 23.9812 9.10156 23.9953 12.4951 23.9953C15.8887 23.9953 16.3135 23.9812 17.6465 23.925C18.9746 23.8687 19.8877 23.6625 20.6787 23.3672C21.499 23.0625 22.1973 22.65 22.8906 21.9844C23.584 21.3188 24.0137 20.6484 24.3311 19.8609C24.6387 19.0969 24.8535 18.225 24.9121 16.95C24.9707 15.6703 24.9854 15.2625 24.9854 12.0047C24.9854 8.74688 24.9707 8.33906 24.9121 7.05938C24.8535 5.78438 24.6387 4.90781 24.3311 4.14844C24.0234 3.35156 23.5986 2.68125 22.9004 2.01562C22.207 1.35 21.5088 0.9375 20.6885 0.632812C19.8926 0.3375 18.9844 0.13125 17.6562 0.075C16.3184 0.0140625 15.8936 0 12.5 0Z" fill="white"/>
<path d="M12.5 5.83594C8.95508 5.83594 6.0791 8.59688 6.0791 12C6.0791 15.4031 8.95508 18.1641 12.5 18.1641C16.0449 18.1641 18.9209 15.4031 18.9209 12C18.9209 8.59688 16.0449 5.83594 12.5 5.83594ZM12.5 15.9984C10.2002 15.9984 8.33496 14.2078 8.33496 12C8.33496 9.79219 10.2002 8.00156 12.5 8.00156C14.7998 8.00156 16.665 9.79219 16.665 12C16.665 14.2078 14.7998 15.9984 12.5 15.9984Z" fill="white"/>
<path d="M20.6738 5.59214C20.6738 6.38902 20 7.0312 19.1748 7.0312C18.3447 7.0312 17.6758 6.38433 17.6758 5.59214C17.6758 4.79526 18.3496 4.15308 19.1748 4.15308C20 4.15308 20.6738 4.79995 20.6738 5.59214Z" fill="white"/>
</g>
<defs>
<clipPath id="clip0_17_223">
<rect width="25" height="24" fill="white"/>
</clipPath>
</defs>
</svg>
