<svg width="55" height="55" viewBox="0 0 55 55" fill="none" xmlns="http://www.w3.org/2000/svg">
<rect width="55" height="55" fill="#1E1E1E"/>
<g clip-path="url(#clip0_0_1)">
<rect x="-40" y="-601" width="430" height="932" rx="50" fill="#EFEFEF"/>
<circle cx="27.5" cy="27.5" r="26.25" stroke="black" stroke-width="2.5"/>
<rect x="-24.7" y="-11.7" width="399.4" height="78.4" stroke="black" stroke-width="0.6"/>
</g>
<path d="M38.4774 34.249L20.3282 36.5176L16.1501 21.0908H41.1998L38.4774 34.249Z" fill="black"/>
<path d="M25.9998 42.4584C25.9998 43.77 24.9365 44.8334 23.6248 44.8334C22.3131 44.8334 21.2498 43.77 21.2498 42.4584C21.2498 41.1467 22.3131 40.0834 23.6248 40.0834C24.9365 40.0834 25.9998 41.1467 25.9998 42.4584Z" fill="black"/>
<path d="M38.6665 42.4584C38.6665 43.77 37.6031 44.8334 36.2915 44.8334C34.9798 44.8334 33.9165 43.77 33.9165 42.4584C33.9165 41.1467 34.9798 40.0834 36.2915 40.0834C37.6031 40.0834 38.6665 41.1467 38.6665 42.4584Z" fill="black"/>
<path d="M10.7998 13.7385C10.2475 13.7385 9.7998 14.1862 9.7998 14.7385C9.7998 15.2908 10.2475 15.7385 10.7998 15.7385V13.7385ZM14.4297 14.7385L15.3949 14.4771C15.2768 14.0412 14.8813 13.7385 14.4297 13.7385V14.7385ZM20.3282 36.5176L19.3629 36.779C19.4932 37.26 19.9577 37.5717 20.4522 37.5099L20.3282 36.5176ZM38.4774 34.249L38.6014 35.2413C39.0261 35.1882 39.37 34.8707 39.4567 34.4516L38.4774 34.249ZM41.1998 21.0908L42.1791 21.2934C42.24 20.9989 42.1651 20.6926 41.9752 20.4593C41.7853 20.2261 41.5006 20.0908 41.1998 20.0908V21.0908ZM16.1501 21.0908L15.1848 21.3522L16.1501 21.0908ZM10.7998 15.7385H14.4297V13.7385H10.7998V15.7385ZM20.4522 37.5099L38.6014 35.2413L38.3534 33.2567L20.2041 35.5254L20.4522 37.5099ZM39.4567 34.4516L42.1791 21.2934L40.2205 20.8882L37.4981 34.0464L39.4567 34.4516ZM13.4644 14.9999L15.1848 21.3522L17.1153 20.8294L15.3949 14.4771L13.4644 14.9999ZM15.1848 21.3522L19.3629 36.779L21.2934 36.2562L17.1153 20.8294L15.1848 21.3522ZM41.1998 20.0908H16.1501V22.0908H41.1998V20.0908ZM24.9998 42.4584C24.9998 43.2178 24.3842 43.8334 23.6248 43.8334V45.8334C25.4888 45.8334 26.9998 44.3223 26.9998 42.4584H24.9998ZM23.6248 43.8334C22.8654 43.8334 22.2498 43.2178 22.2498 42.4584H20.2498C20.2498 44.3223 21.7608 45.8334 23.6248 45.8334V43.8334ZM22.2498 42.4584C22.2498 41.699 22.8654 41.0834 23.6248 41.0834V39.0834C21.7608 39.0834 20.2498 40.5944 20.2498 42.4584H22.2498ZM23.6248 41.0834C24.3842 41.0834 24.9998 41.699 24.9998 42.4584H26.9998C26.9998 40.5944 25.4888 39.0834 23.6248 39.0834V41.0834ZM37.6665 42.4584C37.6665 43.2178 37.0509 43.8334 36.2915 43.8334V45.8334C38.1554 45.8334 39.6665 44.3223 39.6665 42.4584H37.6665ZM36.2915 43.8334C35.5321 43.8334 34.9165 43.2178 34.9165 42.4584H32.9165C32.9165 44.3223 34.4275 45.8334 36.2915 45.8334V43.8334ZM34.9165 42.4584C34.9165 41.699 35.5321 41.0834 36.2915 41.0834V39.0834C34.4275 39.0834 32.9165 40.5944 32.9165 42.4584H34.9165ZM36.2915 41.0834C37.0509 41.0834 37.6665 41.699 37.6665 42.4584H39.6665C39.6665 40.5944 38.1554 39.0834 36.2915 39.0834V41.0834Z" fill="black"/>
<defs>
<clipPath id="clip0_0_1">
<rect x="-40" y="-601" width="430" height="932" rx="50" fill="white"/>
</clipPath>
</defs>
</svg>
